<svg xmlns="http://www.w3.org/2000/svg" version="1.0" width="400" height="400" viewBox="0 0 4000 4000"><g style="fill:#fff;fill-opacity:1"><path d="M1985 3450c-477-4-540-7-543-20-1-9 25-54 59-100 144-200 270-442 363-700 49-137 67-202 119-430 8-36 18-55 27-55 12 0 19 31 32 135 24 198 34 237 105 440 100 286 180 440 348 667 25 34 42 63 38 65-5 2-251 1-548-2z" style="fill:#fff;fill-opacity:1"/><path d="M2247 2823c-73-168-125-326-158-478-33-158-69-505-69-683 0-106 1-114 24-137 29-29 55-24 139 23 111 63 196 59 293-15l31-23 47 41c72 64 111 156 131 306 13 98 14 135 5 185-12 65-78 254-156 443-51 124-213 437-230 442-5 2-31-45-57-104zM1581 2758c-127-260-192-427-239-618-71-291-67-411 18-535 34-49 123-125 146-125 8 0 37 23 64 51l50 52 54-6c32-3 81-19 124-41 89-45 115-45 153-5 34 36 32 9 19 364-9 231-12 261-43 395-19 80-58 210-87 290-28 80-55 157-60 172-11 36-97 168-109 168-6 0-46-73-90-162z" style="fill:#fff;fill-opacity:1"/><path d="M2260 1531c-70-23-157-69-164-86-8-22 33-145 49-145 8 0 32 7 53 15 55 22 87 8 114-51 24-55 21-143-5-172-9-10-17-21-17-24 0-10 61-28 94-28 47 0 129 43 164 86 35 42 36 60 3 57-28-4-27 0 14 54 41 53 43 65 14 85l-21 13 22 38c28 47 17 62-40 59-38-3-42-1-56 33-11 27-26 42-60 56-65 29-102 31-164 10zM1612 1515c-19-8-62-43-97-78-61-61-64-63-89-50-22 12-27 12-32 0-8-22 13-64 40-83 31-20 26-33-10-26-24 4-26 3-19-19 14-45 34-77 62-98 21-15 24-20 11-21-9 0-20 5-23 10-9 15-35 12-35-3 0-20 55-94 85-113 37-24 91-33 133-22 20 6 40 15 43 20 4 6-6 31-22 56-18 29-29 59-29 81 1 46 31 114 61 135 32 22 88 20 124-4 17-11 35-20 42-20 12 0 53 116 53 151 0 13-7 19-22 19-13 0-61 18-108 40-92 43-117 47-168 25z" style="fill:#fff;fill-opacity:1"/><path d="M1984 1508c-20-31-80-231-103-340-7-32-16-58-21-58-4 0-11 19-15 43-16 102-27 128-48 125-40-6-78-80-91-176l-11-87-83-42c-46-23-107-60-136-82-52-40-97-103-83-117 4-4 46 3 94 14 88 22 224 47 233 44 3-1 33-13 67-27 54-22 78-26 170-26 121 0 206 21 280 71l42 28 141-22c77-13 143-19 145-15 9 14-13 54-47 85-38 37-75 57-173 94l-70 27-6 64c-9 82-24 138-48 168l-18 24-21-21c-11-11-30-53-42-92-20-67-31-80-36-44-1 8-8 54-14 102-13 94-68 263-87 269-6 2-15-2-19-9z" style="fill:#fff;fill-opacity:1"/></g><g fill="#fe9b3c"><path d="M1900 3863c-168-314-190-356-190-364 0-6 29-9 67-7l66 3 65 112c35 62 68 111 72 108 3-2 37-54 75-115l68-110h58c32 0 60 3 62 8 3 4-30 68-72 142-43 74-104 181-135 238-31 56-61 102-65 102s-36-53-71-117zM2401 3113c-23-27-41-53-41-59s59-132 131-280 175-359 228-469c54-110 112-230 131-267l33-66-56-99c-30-54-70-125-88-158-17-33-52-95-76-137-23-43-43-80-43-84 0-17 73-102 84-98 7 3 20 19 29 37s41 70 70 117c104 168 237 388 243 403 3 8-114 256-265 563-149 302-281 570-294 596-12 26-27 47-34 48-6 0-30-21-52-47zM1477 3028c-30-62-117-239-192-393-225-459-315-646-315-655 0-4 63-154 140-333s140-331 140-337c0-21 27-21 63 0 46 27 49 37 27 91-11 24-64 160-120 301l-101 256 64 139c36 76 106 223 156 327 50 103 91 190 91 192s41 88 90 191c50 103 93 197 96 208 5 21-51 115-73 122-6 2-35-47-66-109zM2145 578c-76-128-152-257-169-286-17-28-33-52-36-52s-32 53-65 118c-110 215-207 397-219 409-9 10-22 9-61-6-56-21-63-32-42-64 7-12 68-123 135-247C1907 41 1927 6 1936 4c5-2 20 18 32 44 13 26 54 99 91 162 324 549 344 589 295 590-6 0-25 3-41 6-29 6-31 4-168-228z"/></g></svg>